<mxfile host="app.diagrams.net" agent="Mozilla/5.0 (Macintosh; Intel Mac OS X 10_15_7) AppleWebKit/537.36 (KHTML, like Gecko) Chrome/136.0.0.0 Safari/537.36" version="27.0.6">
  <diagram name="Pagina-1" id="OImiaQin6OVa09Ox4CnK">
    <mxGraphModel dx="1261" dy="859" grid="1" gridSize="10" guides="1" tooltips="1" connect="1" arrows="1" fold="1" page="1" pageScale="1" pageWidth="827" pageHeight="1169" math="0" shadow="0">
      <root>
        <mxCell id="0" />
        <mxCell id="1" parent="0" />
        <mxCell id="em627_HRAGHqhbAxkosX-5" style="edgeStyle=orthogonalEdgeStyle;rounded=0;orthogonalLoop=1;jettySize=auto;html=1;exitX=1;exitY=0.5;exitDx=0;exitDy=0;entryX=0;entryY=0.5;entryDx=0;entryDy=0;endArrow=none;startFill=0;" edge="1" parent="1" source="em627_HRAGHqhbAxkosX-6" target="em627_HRAGHqhbAxkosX-166">
          <mxGeometry relative="1" as="geometry" />
        </mxCell>
        <mxCell id="em627_HRAGHqhbAxkosX-6" value="" style="ellipse;whiteSpace=wrap;html=1;aspect=fixed;fillColor=#FFFFFF;" vertex="1" parent="1">
          <mxGeometry x="290" y="860" width="14" height="14" as="geometry" />
        </mxCell>
        <mxCell id="em627_HRAGHqhbAxkosX-7" value="Id_Encounter" style="text;html=1;align=center;verticalAlign=middle;resizable=0;points=[];autosize=1;strokeColor=none;fillColor=none;" vertex="1" parent="1">
          <mxGeometry x="311" y="836" width="90" height="30" as="geometry" />
        </mxCell>
        <mxCell id="em627_HRAGHqhbAxkosX-182" style="edgeStyle=orthogonalEdgeStyle;rounded=0;orthogonalLoop=1;jettySize=auto;html=1;exitX=1;exitY=0.5;exitDx=0;exitDy=0;endArrow=none;startFill=0;" edge="1" parent="1" source="em627_HRAGHqhbAxkosX-16" target="em627_HRAGHqhbAxkosX-43">
          <mxGeometry relative="1" as="geometry" />
        </mxCell>
        <mxCell id="em627_HRAGHqhbAxkosX-16" value="" style="ellipse;whiteSpace=wrap;html=1;aspect=fixed;fillColor=#FFFFFF;" vertex="1" parent="1">
          <mxGeometry x="640" y="860" width="14" height="14" as="geometry" />
        </mxCell>
        <mxCell id="em627_HRAGHqhbAxkosX-38" value="Id_Organization" style="text;html=1;align=center;verticalAlign=middle;resizable=0;points=[];autosize=1;strokeColor=none;fillColor=none;" vertex="1" parent="1">
          <mxGeometry x="592" y="830" width="110" height="30" as="geometry" />
        </mxCell>
        <mxCell id="em627_HRAGHqhbAxkosX-43" value="" style="ellipse;whiteSpace=wrap;html=1;aspect=fixed;fillColor=#FFFFFF;" vertex="1" parent="1">
          <mxGeometry x="746" y="860" width="14" height="14" as="geometry" />
        </mxCell>
        <mxCell id="em627_HRAGHqhbAxkosX-45" value="Name" style="text;html=1;align=center;verticalAlign=middle;resizable=0;points=[];autosize=1;strokeColor=none;fillColor=none;" vertex="1" parent="1">
          <mxGeometry x="723" y="830" width="60" height="30" as="geometry" />
        </mxCell>
        <mxCell id="em627_HRAGHqhbAxkosX-183" style="edgeStyle=orthogonalEdgeStyle;rounded=0;orthogonalLoop=1;jettySize=auto;html=1;exitX=1;exitY=0.5;exitDx=0;exitDy=0;entryX=0.5;entryY=0;entryDx=0;entryDy=0;curved=1;endArrow=none;startFill=0;" edge="1" parent="1" source="em627_HRAGHqhbAxkosX-111" target="em627_HRAGHqhbAxkosX-6">
          <mxGeometry relative="1" as="geometry" />
        </mxCell>
        <mxCell id="em627_HRAGHqhbAxkosX-111" value="" style="ellipse;whiteSpace=wrap;html=1;aspect=fixed;fillColor=#FFFFFF;" vertex="1" parent="1">
          <mxGeometry x="230" y="770" width="14" height="14" as="geometry" />
        </mxCell>
        <mxCell id="em627_HRAGHqhbAxkosX-185" style="rounded=0;orthogonalLoop=1;jettySize=auto;html=1;exitX=1;exitY=0.5;exitDx=0;exitDy=0;entryX=0;entryY=0.5;entryDx=0;entryDy=0;endArrow=none;startFill=0;" edge="1" parent="1" source="em627_HRAGHqhbAxkosX-113" target="em627_HRAGHqhbAxkosX-6">
          <mxGeometry relative="1" as="geometry" />
        </mxCell>
        <mxCell id="em627_HRAGHqhbAxkosX-113" value="" style="ellipse;whiteSpace=wrap;html=1;aspect=fixed;fillColor=#FFFFFF;" vertex="1" parent="1">
          <mxGeometry x="150" y="860" width="14" height="14" as="geometry" />
        </mxCell>
        <mxCell id="em627_HRAGHqhbAxkosX-116" value="Gender" style="text;html=1;align=center;verticalAlign=middle;resizable=0;points=[];autosize=1;strokeColor=none;fillColor=none;" vertex="1" parent="1">
          <mxGeometry x="100" y="844" width="60" height="30" as="geometry" />
        </mxCell>
        <mxCell id="em627_HRAGHqhbAxkosX-121" value="Birthdate" style="text;html=1;align=center;verticalAlign=middle;resizable=0;points=[];autosize=1;strokeColor=none;fillColor=none;" vertex="1" parent="1">
          <mxGeometry x="200" y="740" width="70" height="30" as="geometry" />
        </mxCell>
        <mxCell id="em627_HRAGHqhbAxkosX-165" style="edgeStyle=orthogonalEdgeStyle;rounded=0;orthogonalLoop=1;jettySize=auto;html=1;exitX=1;exitY=0.5;exitDx=0;exitDy=0;endArrow=none;startFill=0;" edge="1" parent="1" source="em627_HRAGHqhbAxkosX-166" target="em627_HRAGHqhbAxkosX-16">
          <mxGeometry relative="1" as="geometry" />
        </mxCell>
        <mxCell id="em627_HRAGHqhbAxkosX-166" value="" style="ellipse;whiteSpace=wrap;html=1;aspect=fixed;fillColor=#F2FF3D;" vertex="1" parent="1">
          <mxGeometry x="431" y="860" width="14" height="14" as="geometry" />
        </mxCell>
        <mxCell id="em627_HRAGHqhbAxkosX-167" value="&lt;div style=&quot;&quot;&gt;&lt;span style=&quot;background-color: transparent; color: light-dark(rgb(0, 0, 0), rgb(255, 255, 255));&quot;&gt;Id_Encounter&lt;/span&gt;&lt;/div&gt;&lt;div style=&quot;&quot;&gt;+&lt;/div&gt;&lt;div style=&quot;&quot;&gt;Id_Organization&lt;/div&gt;&lt;div&gt;&lt;br&gt;&lt;/div&gt;" style="text;html=1;align=center;verticalAlign=middle;resizable=0;points=[];autosize=1;strokeColor=none;fillColor=none;" vertex="1" parent="1">
          <mxGeometry x="383" y="880" width="110" height="70" as="geometry" />
        </mxCell>
        <mxCell id="em627_HRAGHqhbAxkosX-184" style="edgeStyle=orthogonalEdgeStyle;rounded=0;orthogonalLoop=1;jettySize=auto;html=1;exitX=1;exitY=0.5;exitDx=0;exitDy=0;entryX=0.5;entryY=1;entryDx=0;entryDy=0;curved=1;endArrow=none;startFill=0;" edge="1" parent="1" source="em627_HRAGHqhbAxkosX-171" target="em627_HRAGHqhbAxkosX-6">
          <mxGeometry relative="1" as="geometry" />
        </mxCell>
        <mxCell id="em627_HRAGHqhbAxkosX-171" value="" style="ellipse;whiteSpace=wrap;html=1;aspect=fixed;fillColor=#FFFFFF;" vertex="1" parent="1">
          <mxGeometry x="244" y="950" width="16" height="16" as="geometry" />
        </mxCell>
        <mxCell id="em627_HRAGHqhbAxkosX-172" value="Start" style="text;html=1;align=center;verticalAlign=middle;resizable=0;points=[];autosize=1;strokeColor=none;fillColor=none;" vertex="1" parent="1">
          <mxGeometry x="200" y="950" width="50" height="30" as="geometry" />
        </mxCell>
      </root>
    </mxGraphModel>
  </diagram>
</mxfile>
